<?xml version="1.0" encoding="utf-8"?>
<!-- Generator: Adobe Illustrator 21.0.0, SVG Export Plug-In . SVG Version: 6.00 Build 0)  -->
<svg version="1.1" id="Layer_1" xmlns="http://www.w3.org/2000/svg" xmlns:xlink="http://www.w3.org/1999/xlink" x="0px" y="0px"
	 viewBox="0 0 1920 1080" style="enable-background:new 0 0 1920 1080;" xml:space="preserve">
<style type="text/css">
	.st0{fill:#439AD4;}
	.st1{fill:#FFFFFF;}
	.st2{fill:#7ECDD7;}
</style>
<g id="Flow_Art">
	<path class="st0" d="M1920,805.1c0,0-170.4,212-859.7,274.9H1920V805.1z"/>
	<path class="st1" d="M1920,951.5c0,0-170.4,99.1-859.7,128.5H1920V951.5z"/>
	<path class="st0" d="M0,1080h859.7C170.4,1017.1,0,805.1,0,805.1L0,1080z"/>
	<path class="st1" d="M0,1080h859.7C170.4,1050.6,0,951.5,0,951.5L0,1080z"/>
	<g>
		<path class="st2" d="M1739.9,695.6c0,0-0.5,43.6-28.9,46.9c0,0,27.8,6,28.9,44.7c0,0,1.1-34.9,24.5-45.8
			C1764.5,741.4,1740.5,734.9,1739.9,695.6z"/>
		<path class="st2" d="M1784.5,738.1c0,0-0.3,26.5-17.6,28.5c0,0,16.9,3.6,17.6,27.2c0,0,0.7-21.2,14.9-27.8
			C1799.4,765.9,1784.9,762,1784.5,738.1z"/>
		<path class="st2" d="M1717,777.8c0,0-0.2,15.2-10.1,16.3c0,0,9.7,2.1,10.1,15.6c0,0,0.4-12.2,8.6-16
			C1725.5,793.8,1717.2,791.5,1717,777.8z"/>
	</g>
</g>
</svg>
