<?xml version="1.0" encoding="utf-8"?>
<!-- Generator: Adobe Illustrator 16.0.0, SVG Export Plug-In . SVG Version: 6.00 Build 0)  -->
<!DOCTYPE svg PUBLIC "-//W3C//DTD SVG 1.1//EN" "http://www.w3.org/Graphics/SVG/1.1/DTD/svg11.dtd">
<svg version="1.1" xmlns="http://www.w3.org/2000/svg" xmlns:xlink="http://www.w3.org/1999/xlink" x="0px" y="0px" width="1920px"
	 height="1080px" viewBox="0 0 1920 1080" enable-background="new 0 0 1920 1080" xml:space="preserve">
<g id="Background">
	<rect fill="#FFFFFF" width="1920" height="1080.124"/>
	<g opacity="0.1">
		<polygon fill="#B3B4B4" points="1572.54,920.439 1530.078,920.439 1530.078,781.531 1496.252,781.531 1496.252,662.061 
			1413.483,662.061 1413.483,781.531 1306.244,781.531 1306.244,722.517 1269.538,722.517 1269.538,737.631 1251.543,737.631 
			1251.543,745.552 1228.512,745.552 1228.512,759.223 1217.718,759.223 1217.718,920.439 1202.604,920.439 1202.604,722.517 
			1142.868,722.517 1142.868,920.439 1130.63,920.439 1130.63,812.393 1047.143,812.393 1047.143,642.629 970.131,642.629 
			970.131,920.439 943.502,920.439 943.502,713.163 868.647,665.661 868.647,797.372 842.021,797.372 842.021,768.58 
			772.208,768.58 772.208,920.439 685.839,920.439 685.839,689.413 606.672,689.413 606.672,920.439 513.828,920.439 
			513.828,605.204 432.496,605.204 432.496,772.717 403.164,772.717 403.164,734.394 323.275,734.394 323.275,813.202 
			296.286,813.202 296.286,920.439 270.917,920.439 270.917,720.897 191.667,720.897 191.667,920.439 191.667,982.157 
			191.667,1081.299 1651.269,1081.299 1651.269,920.439 		"/>
		<path fill="#818282" d="M1609.248,782.974v190.009h-11.97V847.029h-39.138v125.953h-68.729V770.737h-52.9v202.245h-12.236V722.517
			h-0.413c-1.583-11.081-10.494-19.79-21.68-21.026h0.024l-1.503-61.293l-4.043,61.293h0.047c-11.19,1.236-20.1,9.945-21.681,21.026
			h-0.414v250.466h-67.295V790.53h-52.357v182.452h-45.344V831.017h-56.138v141.966h-34.546V722.517h-20.244l-2.696-75.3
			l-4.319,75.3h-27.261v51.281h-38.324l-17.094-32.21l-16.551,32.21h-7.38v-29.688h-49.122v228.873h-37.068V840.551h-38.502v-23.569
			h-41.024v37.245h-23.394V674.298h-13.814c-2.357-10.323-10.741-18.328-21.263-20.141l-4.504-79.003l-4.331,78.978
			c-10.602,1.755-19.065,9.784-21.436,20.166h-13.818v298.685H704.37V789.991h-47.5v182.991h-16.736V789.991h-33.462l-34.281-57.759
			l-36.437,57.759h-31.307v182.991h-9.178v-93.385h-53.438v93.385h-11.337v-72.334h-26.989v72.334h-26.45V849.367H337.31v42.107
			h-29.688v-11.877h-25.91v93.385h-10.795V833.175H234.75v-43.184h-25.911l-4.858-89.605l-3.777,89.605h-8.537v182.991v24.83v83.486
			h1459.602v-83.486v-24.83V782.974H1609.248z"/>
		<polygon fill="#4E4D4E" points="1572.899,821.298 1572.899,893.092 1544.828,893.092 1544.828,1054.49 1493.008,1054.49 
			1493.008,942.755 1444.427,942.755 1444.427,972.982 1428.773,972.982 1428.773,1054.49 1368.316,1054.49 1368.316,927.639 
			1283.567,927.639 1283.567,900.648 1192.343,900.648 1192.343,938.975 1118.933,938.975 1118.933,1054.49 1036.342,1054.49 
			1036.342,1027.682 1036.342,924.4 980.204,924.4 980.204,1027.682 950.516,1027.682 950.516,870.96 926.225,870.96 
			926.225,821.839 872.246,821.839 872.246,1027.682 847.416,1027.682 847.416,884.455 763.747,884.455 763.747,1027.682 
			742.696,1027.682 742.696,906.587 656.87,906.587 656.87,1027.682 605.588,1027.682 605.588,899.029 510.584,899.029 
			510.584,927.098 422.599,927.098 422.599,1027.682 347.567,1027.682 347.567,937.895 253.643,937.895 253.643,1027.682 
			241.228,1027.682 241.228,895.79 191.667,895.79 191.667,1027.682 191.667,1047.473 191.667,1081.299 1022.666,1081.299 
			1036.342,1081.299 1651.269,1081.299 1651.269,1059.888 1651.269,1054.49 1651.269,821.298 		"/>
		<polygon fill="#333433" points="191.667,967.225 328.134,967.225 328.134,988.096 373.477,988.096 373.477,1005.909 
			403.164,1005.909 403.164,972.982 471.538,972.805 471.538,961.367 563.666,961.367 563.666,973.525 623.582,973.525 
			623.582,1021.026 659.925,1021.026 659.925,991.199 716.65,991.199 716.65,968.663 769.956,968.663 769.956,1057.191 
			820.697,1057.191 820.697,924.4 857.671,924.4 857.671,1057.191 867.389,1057.191 867.389,999.971 904.276,1000.148 
			904.276,1057.191 918.668,1057.191 918.668,1000.51 990.19,1000.51 990.19,1057.191 1014.935,1057.191 1014.935,1036.541 
			1049.974,1036.541 1049.974,1057.191 1073.454,1057.191 1073.454,1000.869 1107.778,1000.869 1107.778,1057.191 
			1158.337,1057.191 1158.337,1000.335 1253.476,1000.241 1253.476,1057.191 1270.796,1057.191 1270.796,1026.601 
			1297.157,1026.601 1297.157,973.881 1348.703,973.702 1348.703,1056.11 1411.32,1057.191 1411.32,1031.097 1489.411,1031.102 
			1489.411,1003.75 1560.484,1003.885 1560.484,1041.535 1597.278,1041.445 1597.278,968.304 1651.269,968.304 1651.269,1081.299 
			191.667,1081.299 		"/>
	</g>
</g>
<g id="Character">
	<linearGradient id="SVGID_1_" gradientUnits="userSpaceOnUse" x1="1221.4414" y1="717.1152" x2="1553.269" y2="1291.8577">
		<stop  offset="0" style="stop-color:#60CCF6"/>
		<stop  offset="1" style="stop-color:#114069"/>
	</linearGradient>
	<path fill="url(#SVGID_1_)" d="M1920,520.74c0,0-230.052-95.324-412.153,105.468s-175.082,302.614-362.802,294.703
		S753.632,953,619.017,1080L1920,1080.124V520.74z"/>
	<g>
		<g>
			<path fill="#35373A" d="M1690.445,1037.215l-74.167,30.75h-20.267l-57.728-31.477
				C1538.284,1036.488,1621.732,1019.436,1690.445,1037.215z"/>
			<rect x="1596.823" y="1067.965" fill="#24282D" width="19.455" height="12.035"/>
			<path fill="#24282D" d="M1705.964,1075.463l0.46,4.537h19.924l-9.34-8.286h-5.777l-24.167-17.437h-37.768
				c-9.04,0.954-12.688,5.259-12.688,5.259l48.579,1.134L1705.964,1075.463z"/>
			<path fill="#24282D" d="M1690.445,1037.215l-23.339,9.677H1557.36l-19.076-10.403
				C1538.284,1036.488,1621.732,1019.436,1690.445,1037.215z"/>
			<path fill="#494D5A" d="M1581.909,873.736h-113.326c0,0-37.968,0.607-44.959,39.217l-4.558,87.854c0,0-7.905,13.681-22.498,5.776
				c0,0-2.735-2.432-2.735-9.729c0-7.296-5.474-108.526,6.687-120.382c0,0,13.682-33.44,59.281-33.744h101.229
				c0,0,26.448,2.878,26.146,20.898C1587.176,863.627,1588.496,873.736,1581.909,873.736z"/>
			<path fill="#353A42" d="M1400.516,876.473c0,0,13.681-33.44,59.279-33.744h101.233c0,0,20.527,2.252,25.188,15.124
				c-7.626-5.007-17.592-6.109-17.592-6.109h-101.23c-45.599,0.305-59.279,33.744-59.279,33.744
				c-12.159,11.854-6.687,113.088-6.687,120.383c0,0.987,0.055,1.872,0.143,2.689c-1.567-0.386-3.236-1.018-5.007-1.977
				c0,0-2.735-2.432-2.735-9.729C1393.829,989.559,1388.354,888.328,1400.516,876.473z"/>
			<path fill="#5E5F5F" d="M1873.87,591.512l-27.362,409.371c0,0-1.618,17.633-20.063,25.536
				c-18.443,7.904-115.926,11.556-137.814,10.744c-21.889-0.813-143.892,0.113-143.892,0.113s-150.782-17.548-164.563-37
				c0,0-3.345-2.89-4.105-12.313c-0.758-9.425,1.977-26.904,15.507-31.007c13.525-4.104,223.28-21.129,223.28-21.129l0.1-355.954
				c0,0-1.514-16.073,18.952-19.047c20.469-2.969,182.199-5.908,220.503,5.948C1854.413,566.774,1874.074,571.459,1873.87,591.512z"
				/>
			<path fill="#454545" d="M1797.666,975.299c16.212-2.43,16.217-21.482,16.217-21.482s13.778-205.908,21.075-300.755
				c7.296-94.848,27.331-83.021,27.331-83.021l0,0c5.449,3.439,11.693,9.861,11.581,21.215l-27.362,409.377
				c0,0-1.618,17.631-20.063,25.535c-18.443,7.903-115.926,11.556-137.814,10.739c-3.174-0.114-8.503-0.196-15.217-0.248
				c-38.103-14.98-18.019-41.902-18.019-41.902C1669.986,970.435,1781.453,977.733,1797.666,975.299z"/>
			<path fill="#454545" d="M1800.164,974.763c0,0-304.772-30.108-356.68-23.954c-51.906,6.147-59.251,10.602-6.561,23.954
				c52.693,13.353,227.296,4.413,234.641,9.695C1671.564,984.458,1779.355,991.811,1800.164,974.763z"/>
			<path opacity="0.15" d="M1755.757,955.364c1.44-4.698,2.985-11.028,5.249-19.388c16.434-60.74,5.557-275.973,5.557-275.973
				c2.743-45.33-15.031-78.244-39.187-101.882c-43.949-0.114-83.954,1.257-93.466,2.636c-20.466,2.975-18.952,19.047-18.952,19.047
				l-0.1,355.956C1705.644,937.962,1740.329,952.558,1755.757,955.364z"/>
		</g>
		<g>
			<path fill="#C1C5C9" d="M1654.249,559.432c0,0-33.968-8.768-71.611,7.082c0,0-2.37,12.06,3.116,16.764
				c5.487,4.703,29.217,18.601,55.524,3.037C1667.585,570.751,1656.246,559.495,1654.249,559.432z"/>
			<path fill="#1F2228" d="M1631.538,913.758c-5.074-22.702-2.334-66.396-108.16-49.815l-114.71,27.418
				c0,0-29.814,8.815-29.814,29.793c0,10.688-0.715,83.071,1.159,158.847h92.224c-0.302-46.466,0.053-84.06,1.983-84.369
				c5.075-0.805,11.676-19.645,67.663-18.642C1597.869,977.99,1636.613,936.457,1631.538,913.758z"/>
			<path opacity="0.4" d="M1567.347,952.384c-123.735,13.147-112.247,34.218-112.247,34.218l-1.28,93.398h17.904
				c-0.297-46.305,0.061-83.71,1.986-84.016c5.073-0.813,11.677-19.648,67.662-18.648c49.776,0.888,85.841-31.816,89.68-55.045
				C1621.742,936.999,1602.637,948.633,1567.347,952.384z"/>
			<path fill="#1A2C4A" d="M1703.024,578.735c8.524,2.307,26.143,8.914,28.979,17.425c2.837,8.513-5.878,130.516-5.878,130.516
				s13.491,128.289,6.443,142.88c-7.049,14.592-128.041,11.552-139.593,8.512c-11.554-3.039-47.426-4.863-47.426-19.456
				c0-14.591-21.277-184.83,0-251.709c0,0-0.526-6.29,11.857-15.391C1569.79,582.409,1617.704,555.631,1703.024,578.735z"/>
			<path opacity="0.3" d="M1595.622,693.93c0,0-1.679,139.027,2.126,187.06c0,0-1.57,7.6-3.42-1.521
				c-1.847-9.118-2.637-72.236-2.744-186.749C1591.584,692.72,1594.063,685.02,1595.622,693.93z"/>
			<path fill="#E2E5E8" d="M1670.118,580.861l-70.313,108.623h-11.766l-18.438-103.758c0,0,55.321-25.326,101.733-4.865"/>
			<path opacity="0.2" d="M1545.546,858.611c0-11.749-13.799-124.506-8.037-202.871c1.474,4.294,2.679,11.763,3.221,23.512
				c2.076,44.992,10.085,128.896,13.026,149.431c2.938,20.533,35.162,15.139,55.834,15.945c20.672,0.814,43.367-5.67,25.755-10.944
				c-17.612-5.268,20.045-10.127,29.25-9.317c9.206,0.805,11.063-17.834,11.063-17.834c-4.058-56.4,9.144-172.024,9.144-172.024
				c16.234-43.118,33.212-45.467,47.71-32.889c0.715,25.527-6.389,125.057-6.389,125.057s13.489,128.289,6.439,142.88
				c-7.049,14.592-128.04,11.552-139.592,8.512C1581.418,875.028,1545.546,873.204,1545.546,858.611z"/>
			<path fill="#1E334C" d="M1547.271,601.848c0,0-30.903,9.917-36.071,128.478c0,0-97.279,11.247-157.166,26.751
				c0,0,9.12,15.2,9.726,28.88c0,0,91.238,7.059,175.579-4.222l-2.58-48.066C1536.759,733.668,1535.311,633.88,1547.271,601.848z"/>
			<path fill="#2A2C35" d="M1729.936,872.11c-8.351-27.55-127.25,7.116-127.25,7.116s-94.83,24.983-127.661,43.527
				c-32.832,18.546-18.849,69.011-18.849,69.011s9.526,39.837,21.765,88.235h94.009l-22.142-94.317c0,0,4.863-3.038,102.141-10.64
				C1749.23,967.444,1729.936,872.11,1729.936,872.11z"/>
			<path opacity="0.3" d="M1729.936,872.258c-1.62-5.348-7.442-8.33-15.722-9.694c-0.009,0.086-6.954,70.38-37.945,77.672
				c-31.005,7.296-148.957,17.633-148.957,17.633L1557.365,1080h14.549l-22.106-94.164c0,0,4.863-3.039,102.141-10.641
				C1749.23,967.595,1729.936,872.258,1729.936,872.258z"/>
			<path fill="#FBCDC5" d="M1484.651,761.028c0,0,2.229,23.114-0.508,28.472c-2.735,5.352-66.369,0.467-65.761,0
				c0.605-0.471,5.973-19.922,30.496-27.627C1448.879,761.873,1484.34,757.195,1484.651,761.028z"/>
			<path fill="#F7F9FC" d="M1495.952,758.389c0,0-11.859-1.54-17.784-1.406c-5.922,0.137-6.992,31.154-6.992,31.154
				s11.399,2.626,20.674,1.106L1495.952,758.389z"/>
			<path opacity="0.3" d="M1602.766,694.377L1602.766,694.377c6.015-19.902,28.652-88.365,64.813-122.838
				c0,0,28.106,2.963,39.256,8.435l-66.07,64.045l9.524,12.462L1602.766,694.377z"/>
			<path fill="#203554" d="M1486.404,757.37c3.882-4.773,14.958-1.167,14.958-1.167c26.562-3.708,113.312-14.507,177.947-7.639
				c0,0-2.126-101.839,10.033-131.63c12.159-29.792,37.292-26.943,43.031-18.288c0,0,24.147,26.096,18.677,92.976
				c-5.475,66.88-19.452,89.166-38.301,101.023c0,0-4.864,10.763-97.279,10.8c-92.416,0.039-106.195-2.026-120.991-0.39
				c-0.014,0.006-0.019,0-0.032,0c-7.853,0.978-14.487,0.515-15.163-6.667C1478.07,783.419,1482.525,762.141,1486.404,757.37z"/>
			<path opacity="0.4" d="M1494.475,803.056c-0.014,0.006-0.019,0-0.034,0c-7.849,0.978-14.486,0.515-15.161-6.667
				c-0.148-1.587-0.209-3.308-0.199-5.108c0.138,0,210.063-0.367,227.749-4.489c17.445-4.064,37.793-50.571,38.35-51.85
				c-7.134,34.299-18.435,48.9-32.434,57.704c0,0-4.863,10.763-97.278,10.8C1523.051,803.484,1509.271,801.419,1494.475,803.056z"/>
			<path fill="#E9AEA7" d="M1654.8,490.51c0,0-7.036,51.68-4.067,84.914c2.969,33.236-63.645,27.161-64.491,8.513
				c-0.844-18.647-5.512-42.967-5.512-42.967s-21.977-69.118,39.878-70.932C1620.607,470.038,1654.625,467.614,1654.8,490.51z"/>
			<path opacity="0.05" d="M1620.607,470.038c-61.854,1.814-39.878,70.932-39.878,70.932s1.746,9.104,3.296,20.439
				c22.32,10.184,51.654-15.264,66.907-31.03c1.395-21.71,3.867-39.869,3.867-39.869
				C1654.625,467.614,1620.607,470.038,1620.607,470.038z"/>
			<path fill="#FBCDC5" d="M1645.555,500.43c0,0-3.498,24.141-12.598,33.246c-9.102,9.1-32.898,31.143-62.645,19.943
				c-29.743-11.194-31.494-78.037-31.494-78.037s-6.295-19.948,3.502-38.493c9.799-18.548,46.537-49.695,87.836-35.694
				C1671.453,415.392,1698.75,492.38,1645.555,500.43z"/>
			<path fill="#563B35" d="M1622.982,433.152c0,0-15.223-1.575-23.622,4.989c-8.397,6.56-37.006,12.859-51.704,8.659
				c-14.697-4.2-28.347-9.973-27.82-28.083c0,0,10.496,1.048,44.355-27.559c33.858-28.608,94.226-15.486,107.349,15.485
				c13.122,30.97,15.345,64.567,3.473,92.649c-11.873,28.083-28.089,32.267-28.089,32.267s1.962-27.722,0.428-31.437
				c0,0,12.9,0.18,16.578-18.307c3.672-18.479-10.239-16.38-11.813-15.593c-1.575,0.788-6.298,0.525-7.087,5.512
				c-0.788,4.987-3.938,28.871-3.938,28.871s-3.012-1.048-4.197-9.186C1635.708,483.279,1642.406,440.501,1622.982,433.152z"/>
			<path opacity="0.3" d="M1524.701,417.626c7.366-1.21,21.979-1.805,35.574,8.44c19.159,14.434,32.799,11.285,45.664,3.411
				s28.351,3.938,29.663,7.874c0,0,7.692,11.286,7.915,22.835c0.204,10.666,14.136-10.186,39.225-2.46
				c0.207,14.493-2.233,28.616-7.708,41.566c-11.873,28.083-28.09,32.267-28.09,32.267s1.962-27.722,0.428-31.437
				c0,0,12.902,0.18,16.576-18.307c3.675-18.479-10.235-16.38-11.812-15.593c-1.575,0.788-6.299,0.525-7.086,5.512
				s-3.938,28.871-3.938,28.871s-3.014-1.048-4.198-9.186c-1.186-8.14,5.512-50.918-13.912-58.267c0,0-15.222-1.575-23.62,4.989
				c-8.399,6.56-37.008,12.859-51.705,8.659c-14.699-4.2-28.345-9.973-27.823-28.083
				C1519.854,418.717,1521.278,418.84,1524.701,417.626z"/>
			<path opacity="0.2" d="M1619.504,601.848l-5.652,3.231l1.191,49.44l-15.28,44.188c0,0-5.367,10.747-8.003,0l-2.086-63.07
				l14.915-32.181l-3.372-9.399c0,0,4.835-10.669,13.447-16.14c0,0,0.399,0.818,2.631,0.561
				C1619.527,578.225,1620.192,596.896,1619.504,601.848z"/>
			<path fill="#76C4D6" d="M1614.863,578.478c0,0-6.696-2.797-13.352,0c0,0-3,6.322-5.785,16.056c0,0,3.486,7.383,4.53,8.341
				c0,0-6.167,17.991-7.906,21.741l-5.108,11.021l2.085,63.07c2.638,10.747,8.004,0,8.004,0l15.281-44.188l-1.192-49.44l5.653-3.231
				C1617.76,596.896,1617.096,578.225,1614.863,578.478z"/>
			<path fill="#32476D" d="M1663.769,570.298c0,0,28.106,2.964,39.256,8.438l-66.07,64.039l9.525,12.463l-49.148,43.47
				C1597.331,698.707,1621.172,610.909,1663.769,570.298z"/>
			<path opacity="0.2" d="M1587.726,579.187c0,0,6.745,108.845,3.275,123.033c0,0-30.925-53.551-33.831-57.897l15.633-4.124
				c0,0-8.479-41.362-10.465-46.093c0,0,12.844-10.803,26.324-14.896"/>
			<path fill="#32476D" d="M1582.335,575.833c0,0,10.033,108.588,6.992,122.874c0,0-32.527-52.59-35.567-56.845l15.505-4.592
				c0,0-9.729-41.084-11.857-45.759c0,0,12.512-11.183,25.863-15.679"/>
			<path opacity="0.2" d="M1662.696,570.821c0,0,4.759,0.508,5.268,3.343c0.507,2.841-19.343,32.082-48.64,43.777
				c0,0,2.023-13.173,0-19.86C1617.302,591.393,1644.251,589.368,1662.696,570.821z"/>
			<path fill="#F1F6FC" d="M1653.289,559.944c0,0-1.034,14.429-33.713,15.646c0,0-4.563,1.062-4.713,2.887
				c-0.153,1.822,3.241,19.304,2.023,34.913c0,0,33.444-12.16,47.628-39.521c0,0,0.812-3.296-2.533-5.12
				C1658.639,566.925,1658.43,556.457,1653.289,559.944z"/>
			<path opacity="0.2" d="M1580.622,579.998c0,0-0.494-7.12,1.78-10.782c0.517-0.664,1.229,0.515,1.229,0.515
				c3.045,3.833,7.521,5.646,9.974,6.396c0.012,0.006,0.021,0.014,0.032,0.017c1.034,0.319,1.737,0.463,1.737,0.463l-0.016-0.01
				c0.765,0.161,1.568,0.297,2.454,0.369c0,0,5.249-1.204,4.394,1.203c0,0-8.229,21.663-5.847,33.698
				C1596.36,611.867,1581.76,600.399,1580.622,579.998z"/>
			<path fill="#F1F6FC" d="M1580.149,576.965c0,0-0.037-7.073,2.488-10.451c0.563-0.602,1.205,0.634,1.205,0.634
				c2.819,4.106,7.207,6.356,9.626,7.36c0.011,0.004,0.02,0.012,0.03,0.014c1.021,0.423,1.718,0.639,1.718,0.639l-0.01-0.006
				c0.753,0.235,1.555,0.451,2.441,0.619c0,0,5.366-0.643,4.345,1.645c0,0-9.692,20.518-8.078,32.639
				C1593.915,610.057,1579.966,597.215,1580.149,576.965z"/>
			<path fill="#494D5A" d="M1847.928,869.927h-113.322c0,0-37.967,0.607-44.959,39.217l-4.559,87.854c0,0-7.904,13.681-22.497,5.776
				c0,0-2.734-2.43-2.734-9.729c0-7.296-5.475-108.526,6.688-120.383c0,0,13.677-33.44,59.278-33.743h101.232
				c0,0,26.447,2.879,26.143,20.891C1853.197,859.81,1854.517,869.927,1847.928,869.927z"/>
			<path fill="#353A42" d="M1666.544,872.662c0,0,13.677-33.44,59.278-33.743h101.232c0,0,20.53,2.252,25.188,15.124
				c-7.623-5.016-17.589-6.119-17.589-6.119h-101.23c-45.601,0.306-59.279,33.745-59.279,33.745
				c-12.162,11.856-6.688,113.088-6.688,120.383c0,0.993,0.058,1.876,0.144,2.698c-1.568-0.39-3.236-1.017-5.008-1.977
				c0,0-2.734-2.43-2.734-9.729C1659.856,985.749,1654.382,884.519,1666.544,872.662z"/>
		</g>
		<path fill="#52637C" d="M1517.608,791.988c0,0,3.629,13.121-9.549,24.064h-157.978v-29.262h159.295
			C1509.377,786.791,1517.161,787.126,1517.608,791.988z"/>
		<rect x="1393.377" y="798.292" fill="#242534" width="82.537" height="5.775"/>
		<path fill="#242534" d="M1354.034,786.791c0,0,7.091,11.836,0,29.262h-237.121c0,0-4.255-1.012-4.659-8.917v-15.147
			c0,0-1.011-4.664,6.894-5.197H1354.034z"/>
		<path opacity="0.2" d="M1119.147,786.791h109.979l30.806,29.262h-143.019c0,0-4.255-1.012-4.659-8.917v-15.147
			C1112.254,791.988,1111.243,787.324,1119.147,786.791z"/>
		<path fill="#242534" d="M1326.977,615.718l34.654,151.999c0,0,3.04,14.438-15.807,19.074h-224.958c0,0-18.239-0.529-22.191-16.948
			l-33.135-136.189c0,0-7.907-28.043,18.239-31.806h224.047C1307.826,601.848,1323.472,600.347,1326.977,615.718z"/>
		<path opacity="0.2" d="M1120.866,786.791c0,0-18.239-0.529-22.191-16.948l-31.479-129.373v-0.005l156.502,146.326H1120.866z"/>
		<path fill="#52637C" d="M1352.721,767.717l-34.654-151.999c-2.661-11.652-12.283-13.604-16.786-13.87h6.546
			c0,0,15.646-1.501,19.15,13.87l34.654,151.999c0,0,3.04,14.438-15.807,19.074h-8.911
			C1355.762,782.155,1352.721,767.717,1352.721,767.717z"/>
		<polygon fill="#9ACADD" points="1346.941,628.18 1354.034,657.365 1305.189,657.365 1298.302,628.18 		"/>
		<polygon fill="#9ACADD" points="1357.567,671.957 1364.658,701.14 1315.815,701.14 1308.926,671.957 		"/>
		
			<line fill="none" stroke="#FFFFFF" stroke-width="3" stroke-miterlimit="10" x1="1342.381" y1="638.213" x2="1336.791" y2="638.213"/>
		
			<line fill="none" stroke="#FFFFFF" stroke-width="3" stroke-miterlimit="10" x1="1328.397" y1="638.213" x2="1309.549" y2="638.213"/>
		
			<line fill="none" stroke="#FFFFFF" stroke-width="3" stroke-miterlimit="10" x1="1342.989" y1="645.813" x2="1339.948" y2="645.813"/>
		
			<line fill="none" stroke="#FFFFFF" stroke-width="3" stroke-miterlimit="10" x1="1329.309" y1="645.813" x2="1312.285" y2="645.813"/>
		
			<line fill="none" stroke="#FFFFFF" stroke-width="3" stroke-miterlimit="10" x1="1351.196" y1="682.747" x2="1345.607" y2="682.747"/>
		
			<line fill="none" stroke="#FFFFFF" stroke-width="3" stroke-miterlimit="10" x1="1337.213" y1="682.747" x2="1318.364" y2="682.747"/>
		
			<line fill="none" stroke="#FFFFFF" stroke-width="3" stroke-miterlimit="10" x1="1351.805" y1="690.349" x2="1348.765" y2="690.349"/>
		
			<line fill="none" stroke="#FFFFFF" stroke-width="3" stroke-miterlimit="10" x1="1338.124" y1="690.349" x2="1321.101" y2="690.349"/>
		<g>
			<rect x="880.303" y="816.053" fill="#E1ECEA" width="863.965" height="41.344"/>
			<rect x="880.303" y="816.053" opacity="0.1" width="491.647" height="41.344"/>
			<rect x="1412.183" y="857.396" fill="#CFD7D5" width="48.639" height="222.604"/>
			<rect x="1160.485" y="857.396" fill="#A2A4A3" width="48.03" height="223.328"/>
			<rect x="917.9" y="857.396" fill="#A2A4A3" width="48.033" height="223.328"/>
			<polygon opacity="0.3" points="1429.053,1080 1429.053,869.661 1460.821,869.661 1460.821,857.396 1429.053,857.396 
				1412.183,857.396 1412.183,1080 			"/>
			<polygon opacity="0.3" points="1177.356,1080 1177.356,895.506 1208.516,895.506 1208.516,883.957 1177.356,883.957 
				1160.485,883.957 1160.485,1080 			"/>
			<polygon opacity="0.3" points="934.771,1080.725 934.771,895.506 965.933,895.506 965.933,883.957 934.771,883.957 
				917.9,883.957 917.9,1080.725 			"/>
			<rect x="1648.304" y="857.396" fill="#CFD7D5" width="46.255" height="222.604"/>
			<polygon opacity="0.3" points="1665.176,1080 1665.176,869.661 1694.559,869.661 1694.559,857.396 1665.176,857.396 
				1648.304,857.396 1648.304,1080 			"/>
			<rect x="907.948" y="857.396" fill="#CFD7D5" width="810.007" height="26.561"/>
			<rect x="907.948" y="857.396" opacity="0.1" width="481.173" height="26.561"/>
			<rect x="907.948" y="857.396" opacity="0.07" width="810.007" height="8.722"/>
		</g>
	</g>
	<g>
		
			<ellipse transform="matrix(0.9729 -0.2314 0.2314 0.9729 -130.415 297.6268)" fill="#E5E5E5" cx="1203.58" cy="704.775" rx="33.702" ry="36.331"/>
		<path fill="#6DC7E5" d="M1210.435,722.924l-7.274-24.347l-0.041-0.14l-2.308,0.689c0,0-6.547,5.298-1.698,27.34
			C1199.113,726.467,1204.987,727.771,1210.435,722.924z"/>
		<path fill="#207F8C" d="M1201.358,726.373c-4.993-22.502,1.538-27.869,1.538-27.869l-2.085,0.623c0,0-6.547,5.298-1.698,27.34
			c0,0,1.396,0.307,3.461,0.063C1201.807,726.479,1201.358,726.373,1201.358,726.373z"/>
		
			<linearGradient id="SVGID_2_" gradientUnits="userSpaceOnUse" x1="1199.1621" y1="701.6768" x2="1199.1621" y2="728.6436" gradientTransform="matrix(0.9581 -0.2863 0.2863 0.9581 -152.4229 371.1675)">
			<stop  offset="0" style="stop-color:#F6F18E"/>
			<stop  offset="1" style="stop-color:#1C75BC;stop-opacity:0.3"/>
		</linearGradient>
		<path opacity="0.4" fill="url(#SVGID_2_)" d="M1210.435,722.924l-7.274-24.347l-0.041-0.14l-2.308,0.689
			c0,0-6.547,5.298-1.698,27.34C1199.113,726.467,1204.987,727.771,1210.435,722.924z"/>
		<path fill="#6DC7E5" d="M1214.693,723.009l-5.341-17.865l-0.029-0.102l-1.866,0.558c0,0-5.367,4.05-1.922,20.26
			C1205.535,725.859,1210.226,726.711,1214.693,723.009z"/>
		<path fill="#207F8C" d="M1207.335,725.758c-3.544-16.559,1.819-20.665,1.819-20.665l-1.697,0.507c0,0-5.367,4.05-1.922,20.26
			c0,0,1.112,0.197,2.771-0.023C1207.698,725.818,1207.335,725.758,1207.335,725.758z"/>
		
			<linearGradient id="SVGID_3_" gradientUnits="userSpaceOnUse" x1="1204.3525" y1="709.7813" x2="1204.3525" y2="729.5703" gradientTransform="matrix(0.9581 -0.2863 0.2863 0.9581 -152.4229 371.1675)">
			<stop  offset="0" style="stop-color:#F6F18E"/>
			<stop  offset="1" style="stop-color:#1C75BC;stop-opacity:0.3"/>
		</linearGradient>
		<path opacity="0.4" fill="url(#SVGID_3_)" d="M1214.693,723.009l-5.341-17.865l-0.029-0.102l-1.866,0.558
			c0,0-5.367,4.05-1.922,20.26C1205.535,725.859,1210.226,726.711,1214.693,723.009z"/>
		<path fill="#6DC7E5" d="M1220.533,687.458c1.503,2.236,2.711,4.758,3.535,7.517c3.926,13.134-2.342,26.607-13.996,30.092
			c-11.653,3.48-24.281-4.348-28.206-17.481c-2.513-8.407-0.85-16.948,3.721-22.931c-6.216,6.596-8.721,17.042-5.651,27.313
			c4.351,14.556,18.229,23.264,30.997,19.449c12.773-3.818,19.602-18.712,15.252-33.27
			C1224.968,694.079,1223.006,690.469,1220.533,687.458z"/>
		<path fill="#2D97B8" d="M1210.969,730.397c-12.77,3.815-26.65-4.885-31-19.444c-0.941-3.157-1.361-6.329-1.305-9.406
			c-0.173,3.386,0.226,6.915,1.271,10.421c4.351,14.556,18.229,23.264,30.997,19.449c10.017-2.992,16.37-12.796,16.548-23.906
			C1226.947,718.196,1220.678,727.497,1210.969,730.397z"/>
	</g>
	<g>
		<path fill="#7ECDD7" d="M1470.619,467.767c0,0-0.544,43.597-28.906,46.874c0,0,27.817,5.997,28.906,44.723
			c0,0,1.088-34.878,24.54-45.798C1495.159,513.565,1471.164,507.062,1470.619,467.767z"/>
		<path fill="#7ECDD7" d="M1515.197,510.286c0,0-0.332,26.472-17.557,28.47c0,0,16.894,3.637,17.557,27.153
			c0,0,0.664-21.185,14.902-27.812C1530.1,538.098,1515.53,534.148,1515.197,510.286z"/>
		<path fill="#7ECDD7" d="M1447.663,549.935c0,0-0.19,15.2-10.079,16.35c0,0,9.702,2.089,10.079,15.591
			c0,0,0.381-12.163,8.55-15.966C1456.213,565.909,1447.854,563.645,1447.663,549.935z"/>
	</g>
</g>
<g id="Flow_Art">
	<path fill="#7ECDD7" d="M0,475.099c0,0,199.621,466.443,1006.873,604.901H0V475.099z"/>
	<path fill="#7ECDD7" d="M1920,907.156c0,0-233.424,160.338-679.114,172.844H1920V907.156z"/>
	<path fill="#439AD4" d="M0,808.873c0,0,199.621,209.068,1006.873,271.127H0V808.873z"/>
	<path fill="#439AD4" d="M1920,1001.387c0,0-173.128,72.926-503.695,78.613H1920V1001.387z"/>
</g>
</svg>
